<svg width="99" height="30" viewBox="0 0 99 30" fill="none" xmlns="http://www.w3.org/2000/svg">
<path d="M94.0102 3.31924C92.6623 1.79401 90.6522 0.910685 88.4477 0.864758L72.9402 0.543289C69.6804 0.474932 66.411 0.905369 63.2526 1.82499C56.2834 3.85542 42.5542 7.36406 30.6366 7.41746C19.5061 7.46766 9.47464 7.92801 2.13797 8.38515L0.960938 29.9081C24.5912 26.3599 61.752 10.3643 65.4593 10.4647C65.4593 10.4647 69.502 10.5747 73.0566 10.6719C76.6272 10.7691 82.4194 7.6941 84.327 8.78355C88.3654 11.0885 87.4181 11.0628 96.2992 11.3042C100.266 11.4121 96.6773 6.33444 94.0102 3.31924Z" fill="#D3605B"/>
</svg>
