<svg width="100" height="35" viewBox="0 0 100 35" fill="none" xmlns="http://www.w3.org/2000/svg">
<path d="M94.6201 3.2519C93.1461 1.72561 91.1071 0.867928 88.972 0.867928H73.785C70.554 0.867928 67.3487 1.38383 64.2886 2.40812C57.4775 4.69169 43.7782 8.74613 31.3895 9.13064C19.6374 9.49485 8.9181 10.281 0.988647 10.9934V34.9612C26.4678 29.9465 63.6285 11.3832 67.3647 11.3832C67.3647 11.3832 71.4181 11.3832 74.9652 11.3832C78.5112 11.3832 83.872 8.03158 85.8586 9.10821C90.0594 11.3832 89.1333 11.3832 97.7656 11.3832C101.593 11.3832 97.5392 6.27137 94.6201 3.2519Z" fill="#F68173"/>
</svg>
