<svg width="110" height="154" viewBox="0 0 110 154" fill="none" xmlns="http://www.w3.org/2000/svg">
<path d="M46.1777 3.35574C47.3697 2.24921 48.9366 1.69487 50.3956 1.69593C51.5672 1.69487 52.6546 2.05055 53.4311 2.72024C54.2065 3.39206 54.7085 4.36722 54.7138 5.76214V10.5835C54.7138 12.2721 55.2169 13.9212 56.1568 15.3236L59.7819 20.726C60.3512 21.5762 60.6556 22.5759 60.6556 23.6002V28.68H61.7237V23.6002C61.7237 22.3644 61.3562 21.1575 60.6684 20.1311L57.0433 14.7287C56.2209 13.5025 55.7819 12.0595 55.7819 10.5835V5.76214C55.7862 4.1002 55.14 2.77363 54.1275 1.91062C53.1171 1.04334 51.7787 0.627851 50.3956 0.627851C48.6717 0.62892 46.857 1.2719 45.4514 2.57283L46.1777 3.35574Z" fill="#C13622"/>
<path d="M102.064 65.3794L94.2118 60.5837C92.834 59.7431 92.0532 58.267 92.0532 56.7365C92.0532 56.1373 92.1728 55.5317 92.4238 54.9506L94.732 49.6145L93.7525 49.1904L91.4433 54.5266C91.1336 55.2433 90.9851 55.9952 90.9851 56.7365C90.984 58.628 91.9517 60.4555 93.6553 61.4958L101.508 66.2915L102.064 65.3794Z" fill="#C13622"/>
<path d="M70.7106 149.517H74.9829V133.99C74.9829 130.974 75.6077 128.048 76.8382 125.295L107.345 57.0846L103.445 55.3404L72.9386 123.551C71.4604 126.857 70.7106 130.369 70.7106 133.99V149.517Z" fill="#F25363"/>
<path d="M63.2104 150.434H82.484V145.999C82.484 143.485 80.445 141.447 77.9318 141.447H67.7615C65.2483 141.447 63.2104 143.485 63.2104 145.999V150.434Z" fill="#C13622"/>
<path d="M48.5787 153.091H97.1157C97.6337 153.091 98.0546 152.672 98.0546 152.153V146.879C98.0546 146.36 97.6337 145.941 97.1157 145.941H48.5787C48.0607 145.941 47.641 146.36 47.641 146.879V152.153C47.641 152.672 48.0607 153.091 48.5787 153.091Z" fill="#F25363"/>
<path d="M104.281 58.0352L106.508 54.3888L42.1521 15.094L39.9252 18.7404L104.281 58.0352Z" fill="#F25363"/>
<path d="M101.787 56.212C101.787 58.205 103.403 59.821 105.396 59.821C107.388 59.821 109.004 58.205 109.004 56.212C109.004 54.2189 107.388 52.603 105.396 52.603C103.403 52.603 101.787 54.2189 101.787 56.212Z" fill="#C13622"/>
<path d="M47.0536 22.9316C47.0536 24.9246 48.6685 26.5396 50.6626 26.5396C52.6557 26.5396 54.2717 24.9246 54.2717 22.9316C54.2717 20.9385 52.6557 19.3225 50.6626 19.3225C48.6685 19.3225 47.0536 20.9385 47.0536 22.9316Z" fill="#C13622"/>
<path d="M28.8109 13.5741L37.2184 4.61681C37.586 4.22537 38.1842 4.1627 38.625 4.46822L45.0643 8.93078C45.5051 9.23631 45.6542 9.81749 45.4185 10.2985L39.9819 21.3163C39.5926 22.1083 39.5 23.0102 39.7206 23.8651C41.6174 31.2191 39.2017 41.861 32.8312 51.9184C32.1205 53.0401 30.6136 53.3462 29.5224 52.59L3.20037 34.3473C2.10807 33.5912 1.8653 32.0726 2.66701 31.0129C9.84743 21.5168 18.9645 15.5199 26.5163 14.7136C27.3938 14.6207 28.2064 14.2183 28.8109 13.5741Z" fill="#F25363"/>
<path d="M40.2701 5.92236L43.9508 8.96533L46.2012 5.23877C46.6541 4.48898 46.4885 3.52236 45.8146 2.96482C45.1406 2.40728 44.159 2.42759 43.5075 3.01183L40.2701 5.92236Z" fill="#C13622"/>
<path d="M32.8569 14.8496L38.445 7.81013C38.7325 7.44815 39.2486 7.36922 39.6304 7.62809L41.7206 9.04692C42.1024 9.30579 42.2182 9.81515 41.989 10.2156L37.5075 18.0064C37.2523 18.45 36.6727 18.5832 36.2486 18.2962L33.0529 16.1259C32.6287 15.8378 32.5388 15.2509 32.8569 14.8496Z" fill="#C13622"/>
</svg>
