<svg width="146" height="155" viewBox="0 0 146 155" fill="none" xmlns="http://www.w3.org/2000/svg">
<path d="M0.816901 60.7144C7.48068 56.989 15.0961 58.7705 21.5762 62.7673C50.157 80.0724 55.7634 127.78 58.8416 140.461C49.2267 100.634 0.0115655 86.3014 0.816901 60.7144Z" fill="#388869"/>
<path d="M62.236 153.369C57.9743 119.065 38.8898 87.9121 14.3186 68.7838C13.8529 68.4217 13.1811 68.505 12.819 68.9707C12.4569 69.4364 12.5413 70.1071 13.0059 70.4692C37.1264 89.2312 55.9461 119.95 60.1159 153.632C60.1885 154.218 60.7225 154.633 61.3078 154.561C61.8932 154.488 62.3086 153.955 62.236 153.369Z" fill="#2B6C55"/>
<path d="M71.1874 153.456C82.8071 133.528 87.8549 111.582 87.8549 90.7062C87.8538 70.5408 83.15 51.3676 75.0742 35.9263L73.1816 36.9165C81.0811 52.0149 85.7198 70.874 85.7187 90.7062C85.7187 111.24 80.7532 132.812 69.3418 152.381L71.1874 153.456Z" fill="#2B6C55"/>
<path d="M48.5559 1.7551C53.9508 -4.01788 83.2056 11.6039 85.9047 55.9977C86.2283 64.4965 85.5939 71.3173 86.2924 77.7461C85.7049 72.9525 39.8222 11.0624 48.5559 1.7551Z" fill="#2B6C55"/>
<path d="M84.9325 118.415C91.4062 92.5818 105.156 68.8853 124.038 50.1585L122.534 48.6419C103.382 67.6377 89.4335 91.6685 82.8605 117.896L84.9325 118.415Z" fill="#2B6C55"/>
<path d="M145.407 31.2107C151.369 40.1154 110.581 63.1518 104.905 71.3632C106.047 69.6297 106.559 65.4471 108.259 59.9732C116.362 34.7237 142.501 26.8636 145.407 31.2107Z" fill="#2B6C55"/>
</svg>
