<svg width="115" height="124" viewBox="0 0 115 124" fill="none" xmlns="http://www.w3.org/2000/svg">
<path d="M114.114 42.7373C111.487 66.5011 62.8917 74.2073 48.3956 109.999C52.9553 98.7796 64.9263 54.326 94.2538 41.8689C100.847 39.0033 108.29 38.2983 114.114 42.7373Z" fill="#388869"/>
<path d="M45.3848 122.25C54.0747 91.1044 76.0335 64.7697 101.32 50.3399C101.832 50.0472 102.01 49.3946 101.718 48.883C101.426 48.3703 100.773 48.192 100.261 48.4846C74.4805 63.2103 52.1981 89.9337 43.3277 121.675C43.1685 122.243 43.5007 122.833 44.0689 122.991C44.6371 123.15 45.2267 122.818 45.3848 122.25Z" fill="#2B6C55"/>
<path d="M53.8269 28.4345C61.9293 44.13 34.6857 68.8401 36.4171 96.1105C35.8061 86.3685 28.8049 54.1561 41.3111 35.8791C44.2761 31.485 48.5067 28.1493 53.8269 28.4345Z" fill="#388869"/>
<path d="M38.5009 105.193C37.6635 99.7686 37.2565 94.2969 37.2565 88.8411C37.2555 71.1558 41.5374 53.6349 49.3152 38.4457C49.5844 37.9202 49.3761 37.2761 48.8517 37.008C48.3262 36.7389 47.6832 36.9472 47.414 37.4716C39.4792 52.9716 35.1204 70.8118 35.1204 88.8411C35.1204 94.4037 35.5348 99.9844 36.3893 105.519C36.479 106.102 37.0248 106.502 37.6079 106.412C38.1911 106.322 38.5906 105.777 38.5009 105.193Z" fill="#2B6C55"/>
<path d="M37.3025 91.9172C36.8732 67.3769 29.9114 43.0598 17.5622 21.8926L15.7166 22.9692C27.8852 43.8235 34.7455 67.7935 35.1674 91.9535L37.3025 91.9172Z" fill="#2B6C55"/>
<path d="M24.9257 33.2751C25.7534 37.7472 26.359 42.4136 27.6482 45.9714C26.4648 42.4756 16.1973 36.0382 9.40216 24.5852C-14.4727 -14.7897 18.6293 -1.31265 24.9257 33.2751Z" fill="#2B6C55"/>
</svg>
