<svg width="414" height="432" viewBox="0 0 414 432" fill="none" xmlns="http://www.w3.org/2000/svg">
<path d="M122.655 204.342C113.842 197.253 101.786 189.732 94.7837 179.94C87.7536 170.107 79.0401 159.354 67.4611 164.28C56.1448 169.094 59.2293 189.122 70.5948 196.04C82.0329 203.002 104.179 225.695 125.724 225.619C128.217 225.61 130.993 225.353 133.961 224.908L135.138 203.385C127.444 203.864 122.655 204.342 122.655 204.342Z" fill="#5C182D"/>
<path d="M89.9379 139.674L79.3948 162.376C79.3948 162.376 72.2397 155.864 57.3656 155.305C57.3656 155.305 61.7928 146.847 63.4387 137.771C65.0846 128.695 69.2267 122.36 69.2267 122.36C69.2267 122.36 90.8799 129.067 89.9379 139.674Z" fill="#F68173"/>
<path d="M69.2267 122.36C69.2267 122.36 65.0846 128.695 63.4387 137.771C61.7928 146.847 57.3656 155.305 57.3656 155.305C59.2518 155.376 61.011 155.544 62.6505 155.781C63.9845 152.993 66.1324 148.639 68.8507 143.6C73.1455 135.638 80.5719 143.117 85.2736 149.718L89.9379 139.674C90.8799 129.067 69.2267 122.36 69.2267 122.36Z" fill="#D3605B"/>
<path d="M102.091 109.746C107.541 124.393 104.885 141.235 99.1457 143.248C93.408 145.261 82.3554 138.216 81.2927 133.183C80.2299 128.15 79.1672 134.995 75.5539 132.78C71.9406 130.565 68.1147 120.501 73.6409 120.3C79.1672 120.098 79.5923 124.93 82.1429 123.52C84.6935 122.111 83.3488 101.12 91.0272 101.12C96.6197 101.12 100.876 106.479 102.091 109.746Z" fill="#F68173"/>
<path d="M99.5932 98.7354C106.695 111.017 99.3582 119.076 91.495 124.747C83.6307 130.419 68.1146 127.478 63.4385 137.771C63.4385 137.771 63.0134 134.2 60.0378 132.729C57.0621 131.259 53.6618 131.89 53.0244 123.277C52.3864 114.664 51.5361 103.531 61.5256 95.1285C71.5154 86.7258 92.5673 86.587 99.5932 98.7354Z" fill="#372C36"/>
<path d="M92.8077 169.083C71.6073 154.606 63.4354 154.592 57.3655 155.305C51.2955 156.019 43.8973 166.011 44.2674 178.928C44.637 191.846 48.5477 207.514 63.7366 221.741C78.9248 235.97 82.0158 234.561 87.4438 256.768C87.4438 256.768 118.245 252.331 129.126 235.465C129.126 235.465 121.716 234.606 119.789 220.891C117.862 207.177 114.027 194.82 108.428 185.761C102.83 176.701 92.8077 169.083 92.8077 169.083Z" fill="#842B45"/>
<path d="M115.94 238.949C113.067 238.391 108.33 247.56 99.6776 235.593C97.5084 232.592 96.64 227.468 114.332 230.252C131.619 232.972 71.0797 191.051 65.7532 177.381C62.0426 167.854 60.4918 159.976 62.6504 155.781L62.4154 155.117C60.495 154.998 58.8651 155.129 57.3655 155.305C51.2955 156.018 43.8973 166.011 44.2674 178.928C44.637 191.846 48.5477 207.514 63.7366 221.741C78.9248 235.97 82.0158 234.561 87.4438 256.768C87.4438 256.768 118.245 252.331 129.126 235.465C129.126 235.465 124.786 240.667 115.94 238.949Z" fill="#5C182D"/>
<path d="M241.323 205.134C241.561 204.76 241.435 204.27 241.048 204.048C239.331 203.068 234.323 200.768 225.096 200.768C215.869 200.768 210.861 203.068 209.144 204.048C208.758 204.27 208.632 204.76 208.87 205.134L209.241 205.716C209.506 206.131 209.967 206.383 210.465 206.383H239.728C240.226 206.383 240.688 206.131 240.952 205.716L241.323 205.134Z" fill="#EDEEEC"/>
<path d="M84.5193 91.3474C92.5566 86.3061 105.657 96.8384 107.86 105.158C109.708 112.133 106.797 117.815 102.759 120.126C98.7205 122.436 85.331 100.17 85.331 100.17L84.5193 91.3474Z" fill="#372C36"/>
<path d="M219.616 120.127L219.599 120.122L219.638 120.118L219.616 120.127Z" fill="#414B7B"/>
<path d="M219.819 120.698L219.794 120.689L219.831 120.722L219.819 120.698Z" fill="#414B7B"/>
<path d="M263.348 120.127L263.333 120.122L263.369 120.119L263.348 120.127Z" fill="#414B7B"/>
<path d="M263.552 120.698L263.527 120.689L263.565 120.722L263.552 120.698Z" fill="#414B7B"/>
<path d="M260.751 119.599L260.746 119.6L260.747 119.599H260.751Z" fill="#414B7B"/>
<path d="M261.315 119.434L261.114 119.518C260.906 119.603 260.894 119.597 260.844 119.606L261.123 119.504L261.032 119.532C261.117 119.503 261.084 119.514 261.191 119.478L261.017 119.535C261.117 119.5 261.083 119.505 261.285 119.444L261.286 119.442L261.127 119.483C261.207 119.462 261.182 119.469 261.279 119.443C261.473 119.396 260.771 119.564 260.913 119.533L260.944 119.525L260.862 119.548C260.612 119.61 260.992 119.514 260.84 119.55C260.638 119.602 260.731 119.579 260.578 119.617L260.544 119.632C260.687 119.6 260.593 119.621 260.771 119.582L260.546 119.652C260.697 119.611 260.688 119.613 260.747 119.597L260.643 119.627L260.746 119.6L260.694 119.622L260.784 119.593L260.798 119.596L260.825 119.585C260.974 119.541 260.772 119.605 260.794 119.599C260.75 119.613 260.73 119.619 260.633 119.648C260.657 119.643 260.524 119.689 260.64 119.654L260.72 119.625L260.67 119.651L260.717 119.635C260.614 119.673 260.735 119.639 260.76 119.636L260.779 119.627L260.698 119.662L260.537 119.718C260.689 119.668 260.411 119.776 260.525 119.746L260.558 119.726C260.683 119.675 260.787 119.631 260.847 119.608L260.866 119.605L260.746 119.653L260.764 119.651L260.589 119.72L260.671 119.692L260.618 119.727L260.627 119.72C260.689 119.701 260.651 119.729 260.784 119.671L260.833 119.646L260.813 119.655C260.894 119.613 260.8 119.666 260.911 119.615L260.895 119.632L260.817 119.668C260.629 119.772 260.963 119.598 260.957 119.612L260.893 119.646L260.966 119.624L261.107 119.552L261.094 119.573C261.028 119.606 261.154 119.532 261.051 119.583L260.988 119.621L261.021 119.624L260.981 119.65L260.972 119.691L260.996 119.659L261.048 119.645L261.07 119.616L261.077 119.626L261.084 119.621L261.099 119.631L261.058 119.74L261.096 119.701L261.092 119.692L261.169 119.621L261.14 119.664L261.167 119.661L261.135 119.713H261.171L261.185 119.675L261.202 119.689L261.192 119.752L261.221 119.727L261.214 119.717L261.232 119.732L261.264 119.705L261.289 119.687L261.288 119.726L261.32 119.722L261.318 119.631L261.34 119.693L261.337 119.61L261.365 119.591L261.37 119.645L261.478 119.736L261.475 119.746L261.535 119.79L261.52 119.684L261.566 119.76L261.597 119.766L261.579 119.75L261.621 119.743L261.577 119.68L261.597 119.707L261.666 119.743L261.686 119.721L261.774 119.786L261.732 119.724L261.765 119.732L261.698 119.688L261.857 119.756C261.712 119.675 261.893 119.763 261.77 119.688C261.874 119.745 261.844 119.71 261.939 119.757L261.827 119.69L261.875 119.711L261.821 119.662L261.946 119.713L261.9 119.69L261.996 119.727L261.999 119.725C262.126 119.779 262.046 119.74 262.121 119.763L262.05 119.734L261.945 119.688L262.256 119.809L262.356 119.837L262.238 119.788L262.385 119.84L262.348 119.811L262.1 119.719L261.955 119.675L261.882 119.648L262.004 119.684C261.883 119.64 261.85 119.626 261.82 119.612L261.9 119.643L261.935 119.655L262.006 119.684L262.11 119.71C262.278 119.778 262.305 119.763 262.41 119.803L262.415 119.797C262.294 119.764 262.282 119.748 262.186 119.717L262.328 119.766L262.239 119.727L262.209 119.72L262.165 119.701L262.317 119.749L262.289 119.733C262.188 119.704 262.055 119.664 262.027 119.657C262.046 119.66 262.092 119.664 262.214 119.705L262.222 119.704L262.409 119.761L262.378 119.752L262.51 119.785L262.444 119.763L262.525 119.783L262.411 119.748L262.565 119.784C262.589 119.787 262.562 119.778 262.463 119.752L262.434 119.736C262.513 119.758 262.471 119.747 262.589 119.779C262.318 119.705 262.538 119.782 262.595 119.83C262.859 119.905 262.631 119.848 262.881 119.934L262.595 119.845L262.63 119.873C262.484 119.834 262.508 119.808 262.309 119.758C262.322 119.774 262.625 119.893 262.523 119.882C262.33 119.802 262.586 119.925 262.372 119.839L262.31 119.798L262.273 119.788C262.212 119.802 262.501 119.886 262.628 119.961L262.403 119.82L262.395 119.81L262.393 119.805L263.144 120.192H263.143L263.139 120.19L263.134 120.187L263.143 120.192H263.144L262.495 119.858L262.501 119.861L262.525 119.877L262.578 119.907L262.68 119.955L262.663 119.944L263.144 120.192H263.143H263.141L263.138 120.19L263.132 120.186L263.118 120.173L263.136 120.189L263.141 120.192H263.143H263.144L262.901 120.067L262.902 120.068L262.904 120.069L262.927 120.083L262.998 120.117L262.819 120.016L262.963 120.064C262.848 120.027 262.918 120.027 262.87 120L263.179 120.098L262.911 119.997L263.039 120.023C263.181 120.086 263.257 120.092 263.303 120.148C263.528 120.177 263.167 120.029 263.055 119.972L263.128 120L263.031 119.949L263.229 120.017L263.198 119.983L263.215 119.987L263.204 119.971L263.477 120.063L263.247 119.975L263.477 120.038L263.381 119.994L263.583 120.048L263.482 120.021C263.516 120.023 263.021 119.905 263.451 120.021C263.219 119.973 263.266 119.992 263.098 119.964C263.337 120.017 263.264 120.032 263.41 120.056L263.18 120.009C263.237 120.034 263.433 120.092 263.536 120.113L263.412 120.086L263.45 120.098L263.312 120.065L263.481 120.131L263.311 120.08L263.382 120.11L263.227 120.071L263.262 120.083L263.203 120.074C263.327 120.105 263.209 120.084 263.333 120.122L263.233 120.114L263.139 120.079C262.99 120.048 263.288 120.131 263.244 120.133L263.132 120.093C263.245 120.161 262.904 120.054 262.968 120.098L263.108 120.143C263.022 120.128 262.965 120.139 262.802 120.09C262.92 120.148 262.957 120.166 262.96 120.192L262.807 120.149L262.76 120.18L262.661 120.158L262.69 120.175L262.615 120.135C262.716 120.224 262.412 120.084 262.485 120.162L262.515 120.173L262.458 120.157L262.554 120.208L262.422 120.216L262.404 120.186L262.294 120.168C262.438 120.226 262.253 120.17 262.308 120.216L262.362 120.231L262.261 120.187C262.19 120.173 262.324 120.263 262.219 120.22L262.252 120.218L262.144 120.163L262.176 120.192L262.04 120.181L262.094 120.232C261.963 120.196 262.056 120.239 261.93 120.205L261.953 120.227L261.896 120.2L261.891 120.248L261.883 120.219L261.792 120.211L261.833 120.244C261.733 120.226 261.763 120.3 261.649 120.253L261.675 120.274C261.568 120.222 261.64 120.333 261.529 120.27L261.541 120.304L261.496 120.283L261.514 120.327L261.461 120.262L261.451 120.306L261.43 120.285L261.283 120.369L261.289 120.314C261.155 120.196 260.951 120.377 260.777 120.322L260.759 120.366L260.712 120.314L260.688 120.374L260.611 120.297L260.618 120.345L260.359 120.321L260.372 120.305L260.184 120.302V120.329L260.115 120.326L260.094 120.363L259.909 120.379L259.936 120.332C259.815 120.398 259.862 120.303 259.741 120.338L259.752 120.359L259.713 120.325L259.678 120.351L259.584 120.313C259.434 120.379 259.454 120.303 259.37 120.351L259.421 120.314L259.296 120.344L259.294 120.348L259.25 120.345L259.193 120.386L259.296 120.303C259.203 120.327 259.191 120.306 259.081 120.345L259.073 120.355L258.666 120.397L258.631 120.414L258.545 120.416L258.479 120.447L258.485 120.398L258.425 120.42C258.315 120.427 258.211 120.415 258.124 120.409L258.107 120.419L257.913 120.414L257.892 120.423L257.815 120.422L257.76 120.442C257.864 120.396 257.374 120.501 257.55 120.462L257.706 120.392C257.63 120.389 257.584 120.419 257.462 120.436C257.388 120.438 257.519 120.401 257.36 120.42L257.278 120.44L257.301 120.41L257.264 120.422C257.427 120.37 257.011 120.477 257.364 120.4C257.294 120.425 257.341 120.437 257.183 120.477C257.284 120.496 257.332 120.539 257.404 120.598C257.158 120.686 257.421 120.61 257.292 120.705L257.421 120.66C257.457 120.768 257.202 121.044 257.321 121.154L257.198 121.213L257.349 121.179C257.38 121.34 257.428 121.556 257.531 121.659L257.813 121.697L257.791 121.702L257.857 121.726C258 121.785 258.116 121.856 258.163 121.998L258.051 122.077C258.194 122.007 258.128 122.141 258.151 122.171L258.197 122.073C258.325 122.019 258.28 122.149 258.227 122.237L258.372 122.176L258.336 122.22L258.392 122.173L258.276 122.312C258.309 122.292 258.372 122.291 258.503 122.179L258.412 122.284L258.519 122.467L258.536 122.393C258.627 122.292 258.731 122.276 258.715 122.347C258.609 122.397 258.584 122.488 258.533 122.579L258.653 122.424L258.806 122.468L258.754 122.494L258.74 122.728C258.842 122.674 258.806 122.782 258.94 122.585L258.866 122.768C258.955 122.7 258.981 122.827 258.925 122.938C259.141 122.67 258.995 123.184 259.16 122.94L259.117 123.128L259.301 122.914C259.29 123.021 259.216 123.138 259.187 123.221L259.348 122.977C259.385 123.443 259.705 123.498 259.809 123.899C259.919 123.908 260.068 123.829 260.157 123.934L260.138 123.968L260.221 124.104L260.179 123.924L260.258 123.862C260.336 124.054 260.467 124.269 260.619 124.155C260.74 123.83 260.64 124.482 260.749 124.251L260.721 124.362C260.821 124.268 260.868 124.218 260.962 124.039C260.934 124.37 261.02 124.043 261.004 124.216L261.017 124.082L261.077 124.296L261.126 124.133L261.128 124.269C261.192 124.286 261.323 124.166 261.362 124.441C261.509 124.224 261.673 124.233 261.852 124.241C261.859 124.116 261.905 124.084 261.939 124.057L262.008 124.218L262.095 124.006L262.099 124.054C262.13 123.998 262.189 124.072 262.189 123.89C262.234 123.878 262.297 123.951 262.322 124.122C262.257 123.825 262.429 124.107 262.429 124.107C262.429 124.107 262.644 124.068 262.947 123.833C263.307 123.548 263.831 123.073 264.203 122.546C264.32 122.392 264.321 122.34 264.344 122.248C264.364 122.163 264.372 122.071 264.37 121.975C264.361 121.782 264.3 121.57 264.165 121.336C264.08 121.232 264.045 121.146 263.923 121.043C263.908 120.989 264.084 121.146 263.993 121.048C263.903 121.012 263.757 120.796 263.614 120.705L263.608 120.664C263.544 120.594 263.661 120.764 263.543 120.637L263.714 120.818L263.565 120.722C263.621 120.803 263.852 121.05 263.716 120.977L263.714 120.958L263.552 120.836L263.558 120.832L263.448 120.765L263.403 120.662L263.453 120.741L263.304 120.611L263.286 120.642L263.212 120.555L263.267 120.674C263.054 120.473 263.333 120.808 263.123 120.627L262.989 120.489L262.945 120.556L262.897 120.496L262.922 120.569C262.861 120.517 262.884 120.613 262.748 120.473C262.618 120.419 262.906 120.663 262.793 120.62C262.705 120.541 262.802 120.573 262.699 120.502L262.694 120.569L262.597 120.431C262.386 120.423 261.888 120.041 261.967 120.187C261.867 120.087 261.909 120.112 261.85 120.039C261.942 120.211 261.613 119.842 261.611 119.866L261.681 119.96C261.443 119.689 261.547 119.89 261.445 119.779L261.488 119.851C261.54 119.957 261.539 119.974 261.56 120.028L261.461 119.844L261.531 119.973C261.442 119.834 261.407 119.795 261.378 119.77L261.304 119.672C261.299 119.804 261.229 119.553 261.226 119.656L261.243 119.937C261.204 119.294 261.225 120.06 261.206 119.612C261.177 119.817 261.214 119.255 261.162 119.729L261.18 119.553L261.171 119.61L261.177 119.561L261.166 119.58L261.135 119.768C261.129 119.78 261.158 119.622 261.137 119.725L261.153 119.632L261.119 119.804C261.178 119.483 261.115 119.77 261.141 119.624L261.095 119.734C261.131 119.583 261.132 119.576 261.152 119.497L261.138 119.527L261.061 119.696L261.055 119.707L261.09 119.633C261.182 119.443 261.064 119.692 261.122 119.577C261.045 119.724 261.107 119.603 261.107 119.603L261.029 119.758L261.047 119.722L261.001 119.808C261.069 119.682 261.1 119.623 261.167 119.498L261.066 119.684C261.156 119.565 261.048 119.707 261.204 119.501C261.141 119.584 261.074 119.673 260.958 119.824L260.975 119.798L261.091 119.653L261.078 119.669L261.126 119.611C261.02 119.721 261.262 119.501 261.133 119.592L261.059 119.691C260.88 119.786 261.14 119.528 260.999 119.581L261.101 119.497L261.001 119.535C261.108 119.42 261.088 119.441 261.161 119.412C261.128 119.371 261.135 119.434 261.023 119.522L261.133 119.449L260.999 119.564L261.111 119.536L261.205 119.466C261.058 119.591 261.304 119.411 261.319 119.432L261.315 119.434Z" fill="#414B7B"/>
<path d="M261.102 119.613L261.087 119.617L261.117 119.592L261.102 119.613Z" fill="#414B7B"/>
<path d="M262 119.722L261.998 119.725L261.982 119.719L262 119.722Z" fill="#414B7B"/>
<path d="M261.82 119.661L261.821 119.662L261.798 119.654L261.82 119.661Z" fill="#414B7B"/>
<path d="M261.958 119.661L261.935 119.655L261.928 119.651L261.958 119.661Z" fill="#414B7B"/>
<path d="M276.925 135.448L276.909 135.438C276.906 135.502 276.903 135.587 276.896 135.726L276.925 135.448Z" fill="#414B7B"/>
<path d="M273.331 143.065C273.451 143.069 273.553 142.992 273.662 142.928L273.331 143.065Z" fill="#414B7B"/>
<path d="M275.145 135.411C275.046 135.291 275.165 135.044 275.068 135.046C275.084 135.173 275.008 135.354 275.145 135.411Z" fill="#414B7B"/>
<path d="M273.481 142.181L273.382 142.156L273.412 142.206L273.481 142.181Z" fill="#414B7B"/>
<path d="M246.334 143.107L246.327 143.103L246.275 143.092L246.334 143.107Z" fill="#414B7B"/>
<path d="M247.543 143.74C247.446 143.727 247.352 143.713 247.247 143.7C247.398 143.751 247.482 143.753 247.543 143.74Z" fill="#414B7B"/>
<path d="M262.481 127.702H262.48V127.704L262.481 127.702Z" fill="#414B7B"/>
<path d="M262.772 127.578L262.481 127.702C262.573 127.702 262.66 127.68 262.772 127.578Z" fill="#414B7B"/>
<path d="M267.714 127.849V127.838L267.709 127.848L267.714 127.849Z" fill="#414B7B"/>
<path d="M258.97 127.932L258.971 127.928L258.964 127.929L258.97 127.932Z" fill="#414B7B"/>
<path d="M248.413 128.673L248.463 128.641C248.608 128.629 248.758 128.616 248.91 128.604C249.215 128.578 249.53 128.551 249.844 128.523C250.473 128.473 251.1 128.437 251.644 128.467C251.881 128.26 252.226 128.253 252.573 128.207L252.609 128.48L252.899 128.393C253.016 128.475 252.675 128.444 252.885 128.548L252.994 128.378C253.016 128.475 253.736 128.442 253.25 128.638L254.375 128.64C254.486 128.643 254.526 128.598 254.562 128.553C254.606 128.497 254.642 128.442 254.794 128.479C254.85 128.558 254.696 128.534 254.718 128.632C255.148 128.738 255.389 128.589 255.631 128.44C255.851 128.304 256.072 128.167 256.44 128.227L256.374 128.264C256.506 128.191 256.755 128.201 256.759 128.161C256.704 128.011 256.668 128.069 256.608 128.126C256.558 128.174 256.492 128.222 256.385 128.148C256.405 127.916 256.678 128.023 256.663 127.848C256.843 127.931 256.948 127.8 257.106 127.786C257.373 127.931 257.756 127.828 257.959 128.009C258.09 127.937 258.235 127.709 258.518 127.7C258.719 127.881 258.47 127.873 258.744 127.94L258.789 127.806C259.014 127.827 258.979 127.864 258.971 127.928C259.07 127.93 259.122 127.899 259.169 127.867C259.237 127.824 259.296 127.779 259.473 127.83L259.304 127.96C259.528 127.909 259.619 127.932 259.93 127.943L259.707 127.993C259.81 128.115 259.896 128.055 259.967 127.995C260.012 127.958 260.053 127.921 260.088 127.929C260.061 127.871 259.847 127.844 259.952 127.711C260.012 127.721 260.074 127.695 260.136 127.671C260.232 127.63 260.323 127.591 260.391 127.688L260.222 127.817C260.544 127.714 260.394 127.649 260.764 127.702L260.746 127.773C260.98 127.601 261.285 127.757 261.631 127.77L261.566 127.806C261.705 127.76 261.782 127.641 261.857 127.65C261.659 127.574 261.714 127.534 261.696 127.405C261.835 127.523 261.939 127.441 262.071 127.36C262.186 127.289 262.321 127.218 262.519 127.279C262.512 127.356 262.41 127.449 262.292 127.367C262.147 127.595 262.129 127.788 261.871 127.895C262.031 127.842 262.221 127.81 262.181 127.906L262.232 127.694C262.329 127.689 262.407 127.702 262.48 127.702C262.522 127.568 262.282 127.483 262.508 127.395C262.631 127.362 262.667 127.411 262.676 127.46C262.686 127.513 262.664 127.566 262.684 127.516C263.035 127.433 262.83 127.289 263.168 127.359L263.039 127.394C263.281 127.48 263.634 127.356 263.706 127.611L263.57 127.722L263.574 127.684C263.448 127.771 263.492 127.765 263.563 127.757C263.644 127.75 263.757 127.742 263.713 127.863C263.696 127.726 264.036 127.757 264.189 127.783L264.141 127.627C264.447 127.347 264.376 127.513 264.379 127.678C264.381 127.788 264.415 127.899 264.619 127.876C264.939 127.77 264.498 127.832 264.693 127.722C264.91 127.75 264.991 127.889 265.309 127.821C265.396 127.883 265.577 127.967 265.593 128.141C265.672 128.113 265.783 128.12 265.895 128.128C266.058 128.14 266.223 128.15 266.287 128.05C266.135 127.982 266.054 128.016 265.972 128.049C265.877 128.088 265.782 128.128 265.574 128.005L265.683 127.835C265.787 127.838 265.903 127.828 266.016 127.817C266.192 127.8 266.363 127.783 266.474 127.82L266.444 127.707C266.823 127.643 266.933 127.472 267.303 127.524C267.351 127.68 267.134 127.654 266.977 127.668C267.118 127.741 267.18 127.731 267.283 127.721C267.354 127.713 267.445 127.707 267.597 127.727C267.606 127.796 267.543 127.794 267.473 127.791C267.403 127.789 267.325 127.786 267.305 127.852L267.714 127.81V127.837C267.749 127.701 267.855 127.736 267.987 127.77C268.076 127.794 268.177 127.817 268.277 127.79C268.869 127.793 268.959 127.486 269.288 127.303L269.365 127.481C269.219 127.379 269.246 127.458 269.195 127.518C269.396 127.495 269.633 127.742 269.521 127.834C269.841 127.768 269.407 127.715 269.601 127.643L270.037 127.658C269.985 127.54 269.832 127.516 270.058 127.427C270.248 127.395 270.339 127.418 270.588 127.426C270.553 127.484 270.666 127.603 270.479 127.596C270.599 127.64 270.787 127.646 270.861 127.533C270.588 127.426 271.306 127.433 271.103 127.251L271.374 127.358L271.215 127.409C271.292 127.586 271.437 127.359 271.532 127.343L271.897 127.461L272.232 127.542C272.36 127.507 272.243 127.426 272.28 127.369L272.715 127.383C272.737 127.483 272.775 127.755 272.708 127.791C272.873 127.701 272.767 127.502 273.015 127.512C272.873 127.701 273.345 127.658 273.137 127.884C273.28 128.024 273.686 128.019 273.91 127.969C274.049 127.818 273.669 127.883 273.682 127.728C274.04 127.702 274.061 127.581 274.162 127.492C274.254 127.401 274.36 127.328 274.48 127.414L274.426 127.347C274.629 127.328 274.6 127.344 274.764 127.276C274.643 127.43 274.696 127.806 274.862 127.948C274.955 127.901 274.892 127.715 275.025 127.634L275.188 127.768L275.112 127.787C275.29 127.899 275.077 128.183 275.295 128.124L275.096 128.377L275.187 128.281C275.287 128.264 275.369 128.441 275.407 128.476C275.545 128.663 275.452 128.745 275.334 128.938C275.413 128.881 275.592 128.741 275.622 128.995C275.467 128.993 275.438 129.126 275.428 129.257C275.417 129.389 275.426 129.523 275.345 129.519C275.35 129.621 275.253 129.803 275.381 129.814L275.187 129.797C275.458 129.822 275.446 130.195 275.493 130.481C275.127 130.416 275.521 130.795 275.186 130.921C275.436 130.975 275.285 131.428 275.496 131.479C275.508 131.699 275.276 131.677 275.197 131.733L275.29 131.835C275.174 131.946 275.155 132.36 275.075 132.605L275.294 132.834L275.194 132.918C275.25 132.955 275.282 133.145 275.365 133.027L275.352 133.151C275.591 133.161 275.417 133.324 275.52 133.572L275.391 133.56C275.389 133.683 275.266 133.631 275.185 133.698C275.211 133.662 275.29 133.733 275.382 133.805C275.509 133.904 275.661 134.003 275.724 133.81C275.822 133.787 275.893 133.981 275.851 134.103L275.634 134.175L275.861 134.322C275.893 134.511 275.756 134.593 275.73 134.746C275.717 134.589 275.316 134.396 275.321 134.802C275.293 134.589 275.174 134.484 275.129 134.373C275.12 134.457 275.099 134.5 275.007 134.369C275.074 134.686 275.139 134.474 275.167 134.788C274.974 134.771 274.913 134.859 274.846 135.133L274.988 134.928L275.04 134.967L275.165 134.851C275.163 134.913 275.404 135.216 275.287 135.268C275.445 135.101 275.5 135.263 275.544 135.423C275.584 135.568 275.614 135.713 275.7 135.617C275.757 135.654 275.767 135.874 275.671 135.896C275.585 135.74 275.524 135.837 275.461 135.933C275.416 136.001 275.371 136.068 275.316 136.051C275.342 136.098 275.376 136.052 275.413 136.006C275.452 135.957 275.495 135.908 275.532 135.976C275.545 136.133 275.426 136.247 275.365 136.335L275.328 136.27L275.242 136.511C275.279 136.527 275.312 136.495 275.341 136.464C275.388 136.414 275.426 136.364 275.455 136.501L275.388 136.775C275.256 136.669 275.08 136.746 275.046 136.556C275.06 136.714 275.083 137.215 275.264 137.012L275.257 137.2C275.338 137.083 275.485 136.753 275.511 137.13L275.473 137.125L275.619 137.388L275.519 137.502C275.568 137.499 275.613 137.541 275.609 137.638L275.451 137.748C275.46 138.029 275.558 138.007 275.615 138.043C275.627 138.201 275.587 138.261 275.474 138.187C275.448 138.402 275.473 138.779 275.37 138.927C275.418 139.086 275.426 139.051 275.445 139.017C275.46 138.989 275.483 138.96 275.541 139.036C275.457 139.099 275.406 139.19 275.38 139.298L275.355 139.473L275.349 139.592C275.352 139.75 275.364 139.94 275.32 140.086C275.624 140.131 275.319 140.174 275.52 140.359C275.5 140.32 275.442 140.334 275.381 140.348C275.289 140.369 275.194 140.391 275.238 140.222L275.174 140.374C274.992 140.357 275.213 140.101 274.945 140.103C274.883 140.211 275.043 140.523 274.808 140.571C274.773 140.471 274.753 140.504 274.73 140.538C274.708 140.572 274.682 140.607 274.637 140.496L274.702 140.365L274.653 140.349C274.372 140.461 274.724 140.612 274.615 140.825C274.398 140.945 274.388 140.739 274.347 140.651L274.174 140.735C274.266 140.595 274.439 140.807 274.421 140.95C274.26 140.758 274.074 140.992 273.985 141.088C274.214 141.208 274.267 141.198 274.344 141.188C274.406 141.18 274.486 141.172 274.69 141.234C274.715 141.143 274.618 140.957 274.851 140.93C274.798 141.056 274.864 141.046 274.924 141.038C274.943 141.035 274.961 141.031 274.975 141.034C274.873 140.957 275.084 140.899 275.105 140.812C275.225 140.839 275.169 141.138 275.404 140.992L275.24 140.751C275.276 140.737 275.303 140.758 275.326 140.78C275.366 140.817 275.398 140.854 275.457 140.726C275.484 140.912 275.67 140.854 275.465 141.116C275.943 141.006 275.776 140.553 275.784 140.284L275.827 140.369L275.841 140.104C275.914 140.014 275.927 140.09 275.943 140.167C275.954 140.222 275.967 140.276 276.003 140.271C276.042 140.171 276.07 140.066 276.091 139.96L276.113 139.957L276.154 139.764C276.229 139.873 276.323 139.932 276.377 140.02C276.337 139.88 276.294 139.749 276.23 139.627C276.266 139.647 276.301 139.604 276.336 139.562C276.387 139.497 276.432 139.431 276.466 139.598C276.464 139.403 276.441 139.237 276.432 139.055L276.626 139.01C276.592 138.882 276.553 138.878 276.529 139.031C276.574 138.848 276.189 138.221 276.573 138.319C276.414 137.899 276.477 137.747 276.38 137.24C276.468 137.433 276.525 137.325 276.57 137.217C276.615 137.107 276.649 136.997 276.69 137.206C276.776 136.964 276.564 136.913 276.532 136.723C276.615 136.544 276.807 136.623 276.877 136.817L276.788 136.59L276.828 136.594L276.718 136.396C276.823 136.188 276.914 136.352 276.94 136.136L276.768 136.089L276.87 135.943C276.79 135.998 276.755 135.869 276.743 135.712L276.781 135.717L276.748 135.525C276.806 135.629 276.811 135.566 276.825 135.502C276.837 135.451 276.854 135.399 276.909 135.438C276.917 135.274 276.916 135.271 276.884 134.976L276.766 135.029C276.712 134.826 276.763 134.832 276.826 134.839C276.881 134.843 276.947 134.848 276.952 134.702L276.816 134.721C277.045 134.273 276.688 133.961 276.834 133.63C276.866 133.82 277.023 133.772 276.985 133.767C276.936 133.482 276.972 133.018 276.809 132.723C277.006 132.615 277.064 132.589 277.153 132.286C277.142 132.066 277.123 132.034 277.008 131.961C277.085 131.748 276.972 131.347 277.115 131.336C277.003 131.286 277.139 131.144 277.043 131.027L277.1 131.002L276.965 131.02C277.27 130.642 276.795 130.38 277.059 129.998L277.095 130.064L277.043 129.903L277.216 129.951L277.241 129.203L277.14 129.351C277.126 129.194 276.995 129.088 277.078 128.908C277.279 129.193 277.093 128.696 277.235 128.559L277.296 128.772C277.276 128.488 277.27 128.469 277.138 128.509C277.046 128.134 277.372 128.195 277.14 127.862L277.194 128.121C277.132 128.21 276.99 128.049 276.948 127.891C276.959 127.848 276.981 127.712 277.034 127.833C276.906 127.552 276.751 127.112 276.624 127.029C276.568 126.868 276.676 126.855 276.759 126.915C276.253 126.447 276.605 126.626 276.033 126.243L276.092 126.19L275.851 126.123C275.797 126.011 275.726 125.913 275.656 125.804L275.71 125.953C275.51 125.846 275.365 125.834 275.141 125.697L275.284 125.63C274.675 125.476 274.576 125.201 273.961 125.337L274.055 125.264C273.844 125.348 273.765 125.304 273.695 125.259C273.618 125.211 273.553 125.163 273.344 125.276L273.34 125.158L273.161 125.231L273.175 125.077L273.029 125.305L272.918 125.145L272.849 125.22C272.658 124.923 272.387 125.146 272.126 124.924L272.171 125.119C271.803 125.344 271.374 125.246 270.93 125.149C270.58 125.072 270.218 124.995 269.866 125.077L269.881 124.923L269.551 125.104C269.375 124.982 269.658 124.973 269.602 124.894C269.251 124.978 269.456 125.121 269.047 125.165C268.838 125.06 269.12 125.051 269.218 124.996C268.836 125.072 268.269 125.157 267.998 125.07L267.989 125.127C267.826 125.17 267.63 125.159 267.436 125.146C267.326 125.139 267.216 125.132 267.114 125.136L267.26 125.039C267.16 125.029 267.022 124.98 266.934 125.052L267.04 124.919C266.965 124.91 266.866 124.918 266.767 124.927C266.58 124.943 266.391 124.959 266.36 124.857C266.385 124.916 266.375 125.033 266.189 125.025C266.131 124.895 265.982 124.939 265.809 124.982C265.669 125.018 265.514 125.054 265.38 124.997L265.573 124.926C265.423 124.864 265.288 124.974 265.156 125.047L265.197 124.952L264.498 125.083C264.442 124.957 264.259 124.975 264.106 124.993C263.973 125.009 263.864 125.025 263.886 124.945C263.637 124.936 264.096 125.049 263.78 125.076C263.743 125.032 263.681 125.037 263.626 125.042C263.559 125.049 263.501 125.055 263.509 124.97L263.542 124.952L263.322 124.963L263.461 124.814C263.271 124.846 263.132 124.996 263.121 125.112C262.943 125.027 262.687 125.096 262.605 124.958L262.673 124.922C262.459 124.947 262.276 124.877 262.108 124.806C261.876 124.71 261.668 124.613 261.438 124.762L261.474 124.705L261.162 124.694L261.236 124.581L260.72 124.756L260.727 124.679C260.386 124.647 259.853 124.688 259.414 124.71L259.479 124.674C259.226 124.737 259.112 124.712 259.008 124.688C258.916 124.666 258.832 124.645 258.667 124.684L258.704 124.651L258.389 124.654L258.458 124.58C258.338 124.665 258.166 124.605 258.047 124.547C257.931 124.491 257.864 124.434 257.935 124.504C257.803 124.577 257.576 124.665 257.536 124.76C257.193 124.769 257.452 124.661 257.239 124.596C257.137 124.592 257.07 124.613 257.002 124.633C256.905 124.662 256.809 124.692 256.61 124.65L256.618 124.573C256.46 124.587 256.361 124.643 256.141 124.653L256.208 124.617C256.053 124.687 255.949 124.655 255.857 124.621C255.738 124.578 255.639 124.535 255.479 124.727C255.33 124.664 255.044 124.712 255.058 124.557C254.613 124.658 254.265 124.704 253.823 124.766C253.783 124.624 253.757 124.646 253.696 124.667C253.648 124.684 253.577 124.702 253.459 124.637L253.479 124.773C253.181 124.781 252.862 124.709 252.537 124.638C252.176 124.559 251.805 124.48 251.443 124.509L251.424 124.373L251.285 124.522C250.541 124.458 249.58 124.405 248.987 124.401C248.889 124.438 248.767 124.496 248.631 124.54L248.409 124.59C248.277 124.603 248.141 124.612 248.003 124.61L248.059 124.586C247.093 124.753 246.175 125.234 245.415 125.943C245.417 125.855 245.316 125.905 245.371 125.792C245.305 126.074 244.968 126.269 244.842 126.471L245.077 126.308C245.002 126.617 244.705 126.922 244.55 127.032C244.529 127.2 244.523 127.369 244.518 127.531L244.443 127.597L244.491 127.696L244.256 127.903C244.256 128.006 244.24 128.72 244.428 128.804C244.368 128.83 244.321 129.075 244.289 128.885L244.234 129.848L244.298 129.697C244.434 129.679 244.522 129.967 244.459 130.117C244.349 129.92 244.265 130.101 244.166 130.185C244.206 130.256 244.238 130.216 244.271 130.175C244.297 130.141 244.326 130.108 244.359 130.139C244.451 130.305 244.497 130.653 244.436 130.739L244.382 130.641C244.432 130.864 244.196 130.967 244.208 131.187C244.317 131.385 244.215 131.531 244.449 131.49C244.48 131.671 244.408 131.666 244.345 131.663C244.309 131.66 244.276 131.658 244.267 131.692C244.38 131.827 244.307 132.226 244.188 132.276C244.531 132.433 244.066 133.046 244.353 133.104L244.189 133.339C244.267 133.346 244.44 133.393 244.473 133.583C244.388 133.762 244.255 133.719 244.175 133.774L244.462 133.894C244.154 134.926 244.358 136.288 244.105 137.419C244.166 137.924 244.297 138.56 244.257 139.149L244.22 139.084C244.198 139.303 244.157 139.395 244.159 139.831C244.171 139.707 244.186 139.549 244.208 139.457L244.274 139.245C244.308 139.384 244.357 139.429 244.367 139.684C244.334 140.246 244.427 140.953 244.768 141.595C245.097 142.241 245.663 142.807 246.328 143.102C246.812 143.184 246.915 143.285 247.031 143.419C247.141 143.546 247.268 143.698 247.738 143.662L247.543 143.74C248.025 143.785 248.501 143.734 248.627 143.682C248.831 143.63 249.035 143.567 249.3 143.471C249.266 143.656 249.381 143.629 249.479 143.601C249.553 143.581 249.617 143.561 249.597 143.635L249.641 143.502C249.76 143.583 250.037 143.612 249.997 143.708L250.231 143.541L250.251 143.678C250.325 143.68 250.421 143.676 250.524 143.672C250.851 143.658 251.264 143.643 251.388 143.853C252.156 143.648 253.368 143.709 254.33 143.763C254.466 143.651 254.746 143.642 254.966 143.63L255.201 143.794C255.424 143.743 255.662 143.538 255.87 143.643L255.844 143.685C255.92 143.674 255.996 143.676 256.07 143.678C256.216 143.682 256.359 143.687 256.499 143.587C256.749 143.596 256.99 143.682 256.915 143.833C256.939 143.564 257.441 143.871 257.441 143.871C257.441 143.871 270.214 144.53 273.331 143.065C273.437 142.933 273.726 142.846 273.615 142.688C273.712 142.666 273.787 142.698 273.844 142.731C273.917 142.772 273.96 142.814 273.985 142.739C273.68 142.651 274.079 142.394 273.782 142.229L273.973 142.196C273.99 142.154 273.941 142.17 273.885 142.186C273.815 142.207 273.734 142.228 273.76 142.132L273.706 142.38C273.551 142.343 273.467 142.291 273.412 142.206C273.267 142.304 273.174 142.641 272.827 142.494L272.922 142.479C272.64 142.488 272.749 142.318 272.691 142.277L272.753 142.279L272.514 142.154C272.617 142.201 272.758 142.156 272.831 142.111C272.887 142.077 272.904 142.043 272.837 142.049C272.5 141.98 272.924 142.11 272.672 142.141C272.514 142.154 272.559 142.02 272.565 141.944L272.284 141.953C272.289 141.896 272.335 141.897 272.366 141.898C272.398 141.899 272.414 141.9 272.356 141.84L272.001 141.962C271.968 141.814 271.87 141.852 271.76 141.89C271.652 141.926 271.533 141.964 271.452 141.827C271.709 141.758 271.43 141.729 271.47 141.634L270.845 141.65L270.914 141.575C270.844 141.526 270.788 141.562 270.741 141.598C270.709 141.621 270.682 141.645 270.657 141.643C270.602 141.563 270.191 141.647 270.207 141.453C269.991 141.387 269.948 141.452 269.907 141.517C269.867 141.58 269.828 141.643 269.633 141.589C269.581 141.47 269.947 141.561 269.771 141.439L269.361 141.482C269.398 141.424 269.442 141.291 269.595 141.317C268.486 141.161 267.887 140.54 266.873 140.698C266.73 140.557 266.977 140.604 267.079 140.511C266.659 140.618 266.381 140.503 266.103 140.386C265.896 140.3 265.688 140.213 265.42 140.221L265.408 140.336C264.538 139.976 263.488 140.191 262.502 140.041L262.62 140.122C262.485 140.235 262.266 140.245 262.103 140.298C262.079 140.24 262.221 140.05 261.935 140.098L262.079 140.24C261.233 139.938 259.447 140.012 258.055 139.866C257.089 139.912 256.079 139.874 255.075 139.836C254.128 139.801 253.186 139.765 252.289 139.8C252.417 139.795 252.462 139.852 252.452 139.909C252.441 139.977 252.353 140.046 252.238 140.009C251.925 139.748 251.656 139.792 251.383 139.836C251.149 139.875 250.911 139.912 250.639 139.76C250.1 139.838 249.592 139.772 249.092 139.733L248.718 139.711L248.532 139.709L248.418 139.712L248.292 139.841L248.338 139.711L248.282 139.737L248.303 139.704L248.197 139.638L248.069 139.724L248.067 139.655L248.136 139.622L247.985 139.638C248.232 139.557 247.981 139.539 248.1 139.469C248.052 139.184 247.935 138.642 247.99 138.21C248.128 138.129 248.126 137.599 248.197 137.261C248.163 136.603 248.118 135.662 248.167 134.825L247.992 134.84L247.98 134.621L248.057 134.627C248.257 134.458 247.995 134.123 248.12 133.947C247.961 134.057 248.094 134.101 248.09 134.225C248.007 134.404 247.838 134.233 247.925 133.991L247.963 133.995L247.871 133.83C248.008 133.812 248.072 133.662 248.208 133.642C248.174 132.923 247.941 132.432 248.005 131.689C248.077 131.725 248.072 131.607 248.075 131.488C248.078 131.357 248.091 131.225 248.23 131.304C248.173 131.049 248.111 131.11 248.035 131.17C247.976 131.216 247.91 131.262 247.83 131.174C247.834 131.049 247.761 130.918 247.858 130.896C247.888 130.922 247.924 130.904 247.957 130.886C247.996 130.863 248.03 130.841 248.043 130.896L248.024 130.597L248.098 130.668C247.946 130.06 248.272 129.591 248.118 129.046L247.994 129.223C247.898 128.959 247.94 128.806 247.992 128.732L248.04 128.649L248.168 128.69C248.081 128.658 247.978 128.602 248.09 128.598C248.24 128.656 248.199 128.672 248.27 128.697C248.273 128.691 248.256 128.643 248.125 128.588L248.261 128.615L248.113 128.518C248.214 128.532 248.251 128.487 248.303 128.483L248.352 128.586C248.319 128.469 248.351 128.534 248.38 128.599C248.4 128.644 248.419 128.69 248.413 128.673Z" fill="#414B7B"/>
<path d="M267.865 127.873L267.714 127.849L267.637 127.961L267.865 127.873Z" fill="#414B7B"/>
<path d="M259.017 128.047C259.139 128.014 259.029 127.972 258.97 127.933L259.017 128.047Z" fill="#414B7B"/>
<path d="M275.335 133.306L275.352 133.152L275.321 133.149L275.335 133.306Z" fill="#414B7B"/>
<path d="M275.111 127.787L275.1 127.783C275 127.77 275.052 127.786 275.111 127.787Z" fill="#414B7B"/>
<path d="M275.068 132.627L275.075 132.606L275.032 132.561L275.068 132.627Z" fill="#414B7B"/>
<path d="M275.067 135.046L275.04 134.967L275.022 135.057L275.067 135.046Z" fill="#414B7B"/>
<path d="M275.219 129.457L275.345 129.519C275.344 129.467 275.317 129.434 275.219 129.457Z" fill="#414B7B"/>
<path d="M159.294 79.8869L159.278 79.8773C159.275 79.9414 159.271 80.0268 159.265 80.1657L159.294 79.8869Z" fill="#414B7B"/>
<path d="M161.614 84.9422C161.494 84.9379 161.391 85.0148 161.284 85.0789L161.614 84.9422Z" fill="#414B7B"/>
<path d="M157.514 79.8505C157.415 79.7298 157.534 79.4831 157.436 79.4842C157.452 79.6123 157.378 79.7928 157.514 79.8505Z" fill="#414B7B"/>
<path d="M161.465 85.8265L161.563 85.8511L161.533 85.8009L161.465 85.8265Z" fill="#414B7B"/>
<path d="M157.703 77.7454L157.72 77.5913L157.691 77.5881L157.703 77.7454Z" fill="#414B7B"/>
<path d="M158.567 71.1574L158.58 71.1382C158.641 70.97 158.592 71.0664 158.567 71.1574Z" fill="#414B7B"/>
<path d="M157.437 77.065L157.444 77.0449L157.401 77.0004L157.437 77.065Z" fill="#414B7B"/>
<path d="M157.436 79.4843L157.409 79.4077L157.391 79.496L157.436 79.4843Z" fill="#414B7B"/>
<path d="M157.588 73.8961L157.714 73.9579C157.713 73.9068 157.686 73.8737 157.588 73.8961Z" fill="#414B7B"/>
<path d="M219.464 135.656L219.465 135.655L219.461 135.634L219.464 135.656Z" fill="#414B7B"/>
<path d="M220.044 126.88V126.886L220.047 126.884L220.044 126.88Z" fill="#414B7B"/>
<path d="M143.924 0.956638H88.3167C83.3405 0.956638 79.3053 4.9908 79.3053 9.96807V59.5827L84.4054 52.2343C86.8556 48.7043 90.8791 46.598 95.177 46.598H143.924C148.901 46.598 152.936 42.5639 152.936 37.5877V9.96807C152.936 4.9908 148.901 0.956638 143.924 0.956638Z" fill="#372C36"/>
<path d="M108.28 37.6219C106.502 37.6219 105.253 37.2801 104.533 36.5976C103.813 35.9162 103.454 34.6676 103.454 32.8508V28.9693C103.454 27.4356 103.293 26.5405 102.974 26.281C102.654 26.0214 102.159 25.8922 101.491 25.8922V22.5053C102.159 22.5053 102.611 22.4113 102.847 22.2233C103.082 22.0353 103.242 21.7619 103.326 21.4041C103.411 21.0474 103.454 20.3884 103.454 19.4292V15.5478C103.454 13.731 103.813 12.4824 104.533 11.7999C105.253 11.1185 106.502 10.7767 108.28 10.7767H109.127V13.5858C108.29 13.5858 107.754 13.7193 107.519 13.9884C107.283 14.2554 107.165 14.8376 107.165 15.7305V19.2028C107.165 20.4354 107.106 21.3625 106.989 21.9841C106.871 22.6046 106.66 23.0799 106.353 23.4089C106.048 23.7389 105.57 24.0017 104.921 24.1993C105.57 24.3969 106.048 24.6607 106.353 24.9897C106.66 25.3187 106.871 25.7939 106.989 26.4155C107.106 27.0361 107.165 27.9632 107.165 29.1958V32.6671C107.165 33.561 107.283 34.1421 107.519 34.4112C107.754 34.6783 108.29 34.8128 109.127 34.8128V37.6219H108.28Z" fill="#78D2D0"/>
<path d="M123.114 37.6219V34.8128C123.951 34.8128 124.487 34.6783 124.722 34.4112C124.958 34.1421 125.076 33.561 125.076 32.6671V29.1958C125.076 27.9632 125.135 27.0361 125.252 26.4155C125.37 25.7939 125.584 25.3187 125.894 24.9897C126.205 24.6607 126.684 24.3969 127.334 24.1993C126.684 24.0017 126.205 23.7389 125.894 23.4089C125.584 23.0799 125.37 22.6046 125.252 21.9841C125.135 21.3625 125.076 20.4354 125.076 19.2028V15.7305C125.076 14.8376 124.958 14.2554 124.722 13.9884C124.487 13.7193 123.951 13.5858 123.114 13.5858V10.7767H123.961C125.739 10.7767 126.988 11.1185 127.708 11.7999C128.427 12.4824 128.787 13.731 128.787 15.5478V19.4292C128.787 20.963 128.948 21.8591 129.267 22.1176C129.587 22.3761 130.082 22.5053 130.75 22.5053V25.8922C130.082 25.8922 129.63 25.9872 129.394 26.1752C129.159 26.3632 128.999 26.6366 128.915 26.9934C128.83 27.3512 128.787 28.0102 128.787 28.9693V32.8508C128.787 34.6676 128.427 35.9162 127.708 36.5976C126.988 37.2801 125.739 37.6219 123.961 37.6219H123.114Z" fill="#78D2D0"/>
<path d="M276.646 206.366H285.03V153.852H276.646V206.366Z" fill="#271D27"/>
<path d="M312.741 187.478H228.991C227.521 187.478 226.411 186.145 226.678 184.7L238.24 122.148C238.445 121.033 239.417 120.224 240.552 120.224H324.302C325.772 120.224 326.881 121.557 326.614 123.002L315.054 185.555C314.846 186.67 313.874 187.478 312.741 187.478Z" fill="#372C36"/>
<path d="M230.015 184.274L241.261 123.428H323.277L312.031 184.274H230.015Z" fill="#271D27"/>
<path d="M250.813 131.414H245.653L246.012 129.434H251.172L250.813 131.414Z" fill="#353D49"/>
<path d="M263.525 131.414H252.604L252.963 129.434H263.883L263.525 131.414Z" fill="#4D2631"/>
<path d="M257.653 163.852H246.732L247.091 161.872H258.011L257.653 163.852Z" fill="#4D2631"/>
<path d="M255.044 178.268H244.122L244.481 176.288H255.402L255.044 178.268Z" fill="#4D2631"/>
<path d="M258.306 160.247H247.384L247.743 158.267H258.665L258.306 160.247Z" fill="#4D2631"/>
<path d="M273.701 135.018H254.903L255.262 133.038H274.059L273.701 135.018Z" fill="#4C3A38"/>
<path d="M291.794 145.83H257.08L257.438 143.85H292.153L291.794 145.83Z" fill="#4C3A38"/>
<path d="M313.15 138.623H285.932L286.291 136.642H313.509L313.15 138.623Z" fill="#4C3A38"/>
<path d="M293.751 135.018H274.955L275.314 133.038H294.109L293.751 135.018Z" fill="#353D49"/>
<path d="M284.716 138.623H254.252L254.61 136.642H285.074L284.716 138.623Z" fill="#353D49"/>
<path d="M310.541 153.039H255.776L256.134 151.059H310.9L310.541 153.039Z" fill="#353D49"/>
<path d="M313.804 135.018H295.007L295.365 133.038H314.162L313.804 135.018Z" fill="#4B2E34"/>
<path d="M271.09 149.435H256.427L256.786 147.455H271.449L271.09 149.435Z" fill="#4C3A38"/>
<path d="M291.142 149.435H272.345L272.704 147.455H291.501L291.142 149.435Z" fill="#353D49"/>
<path d="M311.193 149.435H292.397L292.756 147.455H311.551L311.193 149.435Z" fill="#4B2E34"/>
<path d="M311.846 145.83H293.05L293.408 143.85H312.205L311.846 145.83Z" fill="#353D49"/>
<path d="M312.499 142.227H253.599L253.957 140.246H312.856L312.499 142.227Z" fill="#4B2E34"/>
<path d="M267.829 167.456H249.032L249.391 165.476H268.187L267.829 167.456Z" fill="#4C3A38"/>
<path d="M307.279 171.061H280.061L280.42 169.079H307.638L307.279 171.061Z" fill="#4C3A38"/>
<path d="M287.88 167.456H269.084L269.443 165.476H288.238L287.88 167.456Z" fill="#353D49"/>
<path d="M278.844 171.061H248.38L248.738 169.079H279.203L278.844 171.061Z" fill="#353D49"/>
<path d="M307.932 167.456H289.135L289.493 165.476H308.29L307.932 167.456Z" fill="#4B2E34"/>
<path d="M306.627 174.664H247.727L248.086 172.684H306.985L306.627 174.664Z" fill="#4B2E34"/>
<path d="M309.889 156.644H250.99L251.348 154.663H310.247L309.889 156.644Z" fill="#4B2E34"/>
<path d="M250.161 135.018H245L245.359 133.038H250.519L250.161 135.018Z" fill="#353D49"/>
<path d="M249.507 138.623H244.348L244.706 136.642H249.866L249.507 138.623Z" fill="#353D49"/>
<path d="M248.856 142.227H243.696L244.054 140.246H249.214L248.856 142.227Z" fill="#353D49"/>
<path d="M248.203 145.83H243.043L243.402 143.85H248.562L248.203 145.83Z" fill="#353D49"/>
<path d="M247.551 149.435H242.391L242.749 147.455H247.91L247.551 149.435Z" fill="#353D49"/>
<path d="M246.898 153.039H241.738L242.097 151.059H247.257L246.898 153.039Z" fill="#353D49"/>
<path d="M246.247 156.644H241.087L241.444 154.663H246.605L246.247 156.644Z" fill="#353D49"/>
<path d="M245.593 160.247H240.433L240.792 158.267H245.952L245.593 160.247Z" fill="#353D49"/>
<path d="M244.941 163.852H239.781L240.139 161.872H245.3L244.941 163.852Z" fill="#353D49"/>
<path d="M244.29 167.456H239.129L239.488 165.476H244.648L244.29 167.456Z" fill="#353D49"/>
<path d="M243.636 171.061H238.476L238.835 169.079H243.995L243.636 171.061Z" fill="#353D49"/>
<path d="M242.984 174.664H237.823L238.182 172.684H243.342L242.984 174.664Z" fill="#353D49"/>
<path d="M242.332 178.268H237.172L237.531 176.288H242.691L242.332 178.268Z" fill="#353D49"/>
<path d="M218.286 206.366V204.891C218.286 204.267 218.769 203.75 219.391 203.708L261.006 200.855C261.692 200.808 262.274 201.35 262.274 202.038V206.366H218.286Z" fill="#E3D7DC"/>
<path d="M290.384 340.811C271.718 319.939 249.228 253.769 237.888 236.234L218.394 260.542C222.392 262.19 225.293 270.108 225.293 270.108C229.554 297.011 245.187 319.669 257.459 331.916C269.732 344.164 269.665 349.877 269.665 349.877C269.665 349.877 282.418 341.712 290.384 340.811Z" fill="#78D2D0"/>
<path d="M225.293 270.108C229.554 297.011 245.187 319.668 257.459 331.916C249.832 323.217 244.33 279.073 242.194 272.394C240.058 265.714 236.327 260.906 218.394 260.541C222.392 262.19 225.293 270.108 225.293 270.108Z" fill="#5DBAB3"/>
<path d="M309.463 358.358C301.224 353.83 291.622 342.147 291.622 342.147C291.207 341.72 290.796 341.27 290.384 340.811C282.418 341.712 269.665 349.877 269.665 349.877C266.551 357.489 267.476 364.343 268.143 367.327C268.353 368.263 269.143 368.967 270.108 369.063C298.224 371.875 316.238 371.703 321.947 371.542C323.135 371.509 324.1 370.556 324.119 369.382C324.235 362.326 317.023 362.513 309.463 358.358Z" fill="#5C182D"/>
<path d="M255.676 395.859C255.543 382.774 235.75 294.78 236.741 283.489C237.772 271.756 234.448 264.713 220.093 260.787C220.093 260.787 205.803 249.929 182.913 260.787C160.023 271.645 151.456 283.584 151.456 283.584C167.708 283.584 185.815 283.633 197.579 283.673C203.817 283.693 208.718 289.044 208.15 295.256C203.872 342.005 248.49 382.106 233.583 394.896C233.634 395.258 233.649 395.358 233.702 395.72C244.027 399.81 251.909 394.617 255.676 395.859Z" fill="#78D2D0"/>
<path d="M207.917 304.432C207.615 290.259 216.023 286.243 214.159 282.357C212.293 278.467 197.579 283.673 200.612 276.821C203.646 269.969 213.183 263.203 227.705 263.675C225.608 262.568 223.096 261.607 220.093 260.787C220.093 260.787 205.803 249.929 182.913 260.787C160.023 271.645 151.456 283.584 151.456 283.584C167.708 283.584 185.815 283.633 197.579 283.673C203.817 283.693 208.718 289.044 208.15 295.256C207.867 298.346 207.804 301.406 207.917 304.432Z" fill="#5DBAB3"/>
<path d="M255.677 395.859C251.826 394.589 244.248 399.506 233.583 394.896C224.746 401.016 227.711 407.551 228.594 410.027L248.787 430.662C250.13 431.188 251.553 431.458 252.987 431.458H267.912C269.353 431.458 270.508 430.281 270.516 428.842C270.541 424.906 268.928 423.149 260.95 420.305C254.017 417.836 256.49 406.708 255.677 395.859Z" fill="#5C182D"/>
<path d="M87.4437 256.768C90.9898 271.484 93.8266 283.719 120.037 283.719C136.824 283.719 141.7 283.719 153.456 283.719C168.108 283.719 183.47 275.941 193.421 270.066C213.058 258.473 220.093 260.787 220.093 260.787C220.093 260.787 241.199 240.804 237.888 236.234C234.575 231.664 214.969 229.301 183.063 234.552C151.158 239.804 134.153 239.078 129.126 235.465L87.4437 256.768Z" fill="#78D2D0"/>
<path d="M124.309 207.422C114.152 199.848 100.299 191.846 92.059 181.239C83.8198 170.634 73.6752 159.083 60.353 164.385C47.0299 169.688 50.6706 192.035 64.275 199.609C77.8792 207.184 104.323 232.293 128.849 231.157C131.639 231.028 134.718 230.604 137.989 229.961V205.993C129.579 206.75 124.309 207.422 124.309 207.422Z" fill="#842B45"/>
<path d="M88.7833 296.652L72.7781 431.403C77.452 431.403 81.4968 428.216 82.503 423.74L106.444 317.217H142.869V296.652H88.7833Z" fill="#FCD07B"/>
<path d="M196.955 296.652L212.961 431.403C208.287 431.403 204.242 428.216 203.236 423.74L179.295 317.217H142.869V296.652H196.955Z" fill="#DFA15D"/>
<path d="M200.873 296.652H84.8643C82.0552 296.652 79.7781 294.419 79.7781 291.664C79.7781 287.246 83.4309 283.664 87.9372 283.664H197.801C202.308 283.664 205.959 287.246 205.959 291.664C205.959 294.419 203.683 296.652 200.873 296.652Z" fill="#372C36"/>
<path d="M48.2777 220.127L86.6897 312.98L84.5995 331.996L44.0054 220.127H48.2777Z" fill="#FCD07B"/>
<path d="M84.5997 331.996L44.0056 220.127C42.7331 220.127 41.8465 221.391 42.2805 222.587L83.9311 337.497L84.5997 331.996Z" fill="#DFA15D"/>
<path d="M39.3367 187.957C37.2069 187.957 35.762 190.124 36.581 192.09L57.7501 242.926C58.4112 244.676 60.5314 245.351 62.0822 244.304C74.0747 236.216 79.006 220.992 74.033 207.409L69.1487 194.065C67.805 190.396 64.3145 187.957 60.4075 187.957H39.3367Z" fill="#FCD07B"/>
<path d="M373.779 250.539H243.773V223.925H373.779V250.539Z" fill="#FCD07B"/>
<path d="M373.779 237.232H243.773V223.925H373.779V237.232Z" fill="#DFA15D"/>
<path d="M413.926 223.925H203.626V206.366H413.926V223.925Z" fill="#FCD07B"/>
<path d="M413.926 215.145H203.626V223.925H413.926V215.145Z" fill="#DFA15D"/>
<path d="M223.037 380.495H394.515L388.628 364.028H228.638L223.037 380.495Z" fill="#FCD07B"/>
<path d="M391.572 372.261L388.628 364.028H228.638L225.838 372.261H391.572Z" fill="#DFA15D"/>
<path d="M243.773 250.539L210.917 431.458C214.398 431.458 217.32 428.81 217.698 425.316L269.488 250.539H243.773Z" fill="#FCD07B"/>
<path d="M372.978 250.539L405.835 431.458C402.355 431.458 399.432 428.81 399.053 425.316L347.264 250.539H372.978Z" fill="#FCD07B"/>
<path d="M58.1217 150.258C56.6613 148.485 54.5252 146.717 54.8849 144.457C55.2056 142.442 57.5172 140.891 57.1295 138.887C56.9292 137.859 56.0476 137.092 55.6876 136.109C54.8377 133.787 62.7529 124.373 56.5717 125.523C54.2482 125.957 52.6991 128.296 50.6997 129.388C47.8071 130.969 44.4786 131.546 41.3385 132.453C30.9669 135.449 29.2433 142.378 32.0049 147.608C28.2437 144.573 23.55 142.656 18.7036 142.299C-1.8688 140.783 -5.78269 169.551 8.51543 179.914C13.5938 183.595 20.8534 184.776 24.8854 182.912C14.9794 189.263 14.4934 201.48 26.6649 205.16C40.908 209.468 53.0303 197.992 49.8111 186.484C48.0549 180.207 41.765 175.358 41.9034 168.632C41.9706 165.345 44.2328 161.895 47.5372 161.526C50.1094 161.238 52.6281 162.801 55.1961 162.482C59.9193 161.894 62.4613 155.525 58.1217 150.258Z" fill="#372C36"/>
<path d="M364.458 145.311L376.087 193.517C376.738 196.213 375.928 199.019 373.87 201C372.342 202.471 370.234 203.202 368.101 203.202H338.346C336.577 203.202 335.142 204.619 335.142 206.366H368.007C371.109 206.366 374.163 205.249 376.325 203.051C379.042 200.288 380.09 196.462 379.204 192.784L368.514 148.475C368.067 146.62 366.389 145.311 364.458 145.311Z" fill="#E3D7DC"/>
<path d="M354.628 104.106L356.972 104.535C358.157 104.752 359.165 105.519 359.68 106.608C362.3 112.158 369.759 130.277 366.116 150.149C362.473 170.019 349.072 184.316 344.655 188.575C343.786 189.411 342.571 189.769 341.386 189.552L339.044 189.123L354.628 104.106Z" fill="#EDEEEC"/>
<path d="M341.386 189.552L339.044 189.123L354.628 104.106L356.972 104.535L341.386 189.552Z" fill="#E3D7DC"/>
<path d="M350.124 202.171H237.232C237.232 204.487 239.111 206.366 241.429 206.366H345.928C348.245 206.366 350.124 204.487 350.124 202.171Z" fill="#271D27"/>
<path d="M271.536 206.366H346.207C348.672 206.366 350.774 204.577 351.167 202.144L360.142 146.691C360.522 144.348 358.714 142.222 356.339 142.222H281.67C279.204 142.222 277.103 144.011 276.708 146.446L267.733 201.898C267.354 204.241 269.164 206.366 271.536 206.366Z" fill="#372C36"/>
</svg>
