<svg width="1366" height="248" viewBox="0 0 1366 248" fill="none" xmlns="http://www.w3.org/2000/svg">
<g id="Group 3">
<path id="wave3" d="M0 0H37.9444C75.8889 0 151.778 0 227.667 27.5556C303.556 55.1111 379.444 110.222 455.333 128.564C531.222 147.25 607.111 128.306 683 101.008C758.889 73.1944 834.778 37.0278 910.667 55.1111C986.556 73.1944 1062.44 147.25 1138.33 169.897C1214.22 192.889 1290.11 165.333 1328.06 151.556L1366 137.778V248H1328.06C1290.11 248 1214.22 248 1138.33 248C1062.44 248 986.556 248 910.667 248C834.778 248 758.889 248 683 248C607.111 248 531.222 248 455.333 248C379.444 248 303.556 248 227.667 248C151.778 248 75.8889 248 37.9444 248H0V0Z" fill="url(#paint0_linear_39_8)" fill-opacity="0.5"/>
<path id="wave2" opacity="0.8" d="M-3 24L42.6333 61.3C88.2667 99 179.533 173 270.8 205.3C362.067 237 453.333 227 544.6 194.7C635.867 163 727.133 109 818.4 104C909.667 99 1000.93 141 1092.2 152C1183.47 163 1274.73 141 1320.37 130.7L1366 120V248H1320.37C1274.73 248 1183.47 248 1092.2 248C1000.93 248 909.667 248 818.4 248C727.133 248 635.867 248 544.6 248C453.333 248 362.067 248 270.8 248C179.533 248 88.2667 248 42.6333 248H-3V24Z" fill="url(#paint1_linear_39_8)"/>
<path id="wave1" d="M0 24L25.3279 40C50.561 56 101.501 88 151.778 109.3C202.339 131 253.279 141 303.556 125.3C354.117 109 405.057 67 455.333 56C505.894 45 556.835 67 607.111 66.7C657.672 67 708.613 45 758.889 56C809.45 67 860.39 109 910.667 125.3C961.228 141 1012.17 131 1062.44 120C1113.01 109 1163.95 99 1214.22 82.7C1264.78 67 1315.72 45 1340.39 34.7L1366 24V248H1340.67C1315.44 248 1264.5 248 1214.22 248C1163.66 248 1112.72 248 1062.44 248C1011.88 248 960.943 248 910.667 248C860.106 248 809.165 248 758.889 248C708.328 248 657.388 248 607.111 248C556.55 248 505.61 248 455.333 248C404.772 248 353.832 248 303.556 248C252.995 248 202.054 248 151.778 248C101.217 248 50.2764 248 25.6125 248H0V24Z" fill="url(#paint2_linear_39_8)" fill-opacity="0.7"/>
</g>
<defs>
<linearGradient id="paint0_linear_39_8" x1="683" y1="0" x2="683" y2="248" gradientUnits="userSpaceOnUse">
<stop stop-color="#FDD919"/>
<stop offset="1" stop-color="#C85515" stop-opacity="0"/>
</linearGradient>
<linearGradient id="paint1_linear_39_8" x1="681.5" y1="24" x2="681.5" y2="248" gradientUnits="userSpaceOnUse">
<stop stop-color="#EAC319"/>
<stop offset="1" stop-color="#CC7306" stop-opacity="0.26"/>
</linearGradient>
<linearGradient id="paint2_linear_39_8" x1="683" y1="24" x2="683" y2="248" gradientUnits="userSpaceOnUse">
<stop stop-color="#F4CE19"/>
<stop offset="0.463542" stop-color="#D48612" stop-opacity="0.64"/>
<stop offset="1" stop-color="#F4CE19" stop-opacity="0"/>
</linearGradient>
</defs>
</svg>
