<?xml version="1.0" standalone="no"?><svg xmlns="http://www.w3.org/2000/svg" viewBox="0 0 1440 320"><path fill="#0099ff" fill-opacity="1" d="M0,96L26.7,112C53.3,128,107,160,160,181.3C213.3,203,267,213,320,197.3C373.3,181,427,139,480,128C533.3,117,587,139,640,138.7C693.3,139,747,117,800,128C853.3,139,907,181,960,197.3C1013.3,213,1067,203,1120,192C1173.3,181,1227,171,1280,154.7C1333.3,139,1387,117,1413,106.7L1440,96L1440,320L1413.3,320C1386.7,320,1333,320,1280,320C1226.7,320,1173,320,1120,320C1066.7,320,1013,320,960,320C906.7,320,853,320,800,320C746.7,320,693,320,640,320C586.7,320,533,320,480,320C426.7,320,373,320,320,320C266.7,320,213,320,160,320C106.7,320,53,320,27,320L0,320Z"></path></svg>